<?xml version="1.0" encoding="utf-8" ?>
<svg baseProfile="full" height="60mm" version="1.1" viewBox="0 0 60 60" width="60mm" xmlns="http://www.w3.org/2000/svg" xmlns:ev="http://www.w3.org/2001/xml-events" xmlns:xlink="http://www.w3.org/1999/xlink"><defs /><line stroke="rgb(10%,10%,16%)" x1="48.098271371392535" x2="47.491691903440355" y1="38.92008161158762" y2="40.35210119872558" /><line stroke="rgb(10%,10%,16%)" x1="47.491691903440355" x2="46.69506706911636" y1="40.35210119872558" y2="41.72666989651778" /><line stroke="rgb(10%,10%,16%)" x1="46.69506706911636" x2="45.70720921499044" y1="41.72666989651778" y2="43.02401019881024" /><line stroke="rgb(10%,10%,16%)" x1="45.70720921499044" x2="44.52988209933275" y1="43.02401019881024" y2="44.221791942473715" /><line stroke="rgb(10%,10%,16%)" x1="44.52988209933275" x2="43.1728507748828" y1="44.221791942473715" y2="45.29395964812056" /><line stroke="rgb(10%,10%,16%)" x1="43.1728507748828" x2="41.66350812950043" y1="45.29395964812056" y2="46.21116653934734" /><line stroke="rgb(10%,10%,16%)" x1="41.66350812950043" x2="40.05721842495579" y1="46.21116653934734" y2="46.94673918824205" /><line stroke="rgb(10%,10%,16%)" x1="40.05721842495579" x2="38.43321216017508" y1="46.94673918824205" y2="47.48969573742052" /><line stroke="rgb(10%,10%,16%)" x1="38.43321216017508" x2="36.86477530699829" y1="47.48969573742052" y2="47.85430669228524" /><line stroke="rgb(10%,10%,16%)" x1="36.86477530699829" x2="35.39566509018015" y1="47.85430669228524" y2="48.07242380166606" /><line stroke="rgb(10%,10%,16%)" x1="35.39566509018015" x2="34.04006179185918" y1="48.07242380166606" y2="48.17901882915185" /><line stroke="rgb(10%,10%,16%)" x1="34.04006179185918" x2="32.792322412223676" y1="48.17901882915185" y2="48.20325092747377" /><line stroke="rgb(10%,10%,16%)" x1="32.792322412223676" x2="31.639493613134764" y1="48.20325092747377" y2="48.16632130408343" /><line stroke="rgb(10%,10%,16%)" x1="31.639493613134764" x2="30.567752588398548" y1="48.16632130408343" y2="48.08284693752226" /><line stroke="rgb(10%,10%,16%)" x1="30.567752588398548" x2="29.56479444205341" y1="48.08284693752226" y2="47.962781767871256" /><line stroke="rgb(10%,10%,16%)" x1="29.56479444205341" x2="28.620384213967892" y1="47.962781767871256" y2="47.81294965943056" /><line stroke="rgb(10%,10%,16%)" x1="28.620384213967892" x2="27.726237411446203" y1="47.81294965943056" y2="47.638100276257276" /><line stroke="rgb(10%,10%,16%)" x1="27.726237411446203" x2="26.87571398463457" y1="47.638100276257276" y2="47.4416027918811" /><line stroke="rgb(10%,10%,16%)" x1="26.87571398463457" x2="26.06350221427673" y1="47.4416027918811" y2="47.22589723189313" /><line stroke="rgb(10%,10%,16%)" x1="26.06350221427673" x2="25.28534625465018" y1="47.22589723189313" y2="46.992789937817925" /><line stroke="rgb(10%,10%,16%)" x1="25.28534625465018" x2="24.537826287208937" y1="46.992789937817925" y2="46.74364951454228" /><line stroke="rgb(10%,10%,16%)" x1="24.537826287208937" x2="23.818185767518187" y1="46.74364951454228" y2="46.47953882749706" /><line stroke="rgb(10%,10%,16%)" x1="23.818185767518187" x2="23.124196930967006" y1="46.47953882749706" y2="46.20130538151513" /><line stroke="rgb(10%,10%,16%)" x1="23.124196930967006" x2="22.454056167636455" y1="46.20130538151513" y2="45.90964420025587" /><line stroke="rgb(10%,10%,16%)" x1="22.454056167636455" x2="21.806302337600354" y1="45.90964420025587" y2="45.60514224382764" /><line stroke="rgb(10%,10%,16%)" x1="21.806302337600354" x2="21.179752614396303" y1="45.60514224382764" y2="45.28831023521545" /><line stroke="rgb(10%,10%,16%)" x1="21.179752614396303" x2="20.573451729825287" y1="45.28831023521545" y2="44.95960576741711" /><line stroke="rgb(10%,10%,16%)" x1="20.573451729825287" x2="19.986631504110616" y1="44.95960576741711" y2="44.619450284855304" /><line stroke="rgb(10%,10%,16%)" x1="19.986631504110616" x2="19.41867831318586" y1="44.619450284855304" y2="44.26824170159068" /><line stroke="rgb(10%,10%,16%)" x1="19.41867831318586" x2="18.869106720234345" y1="44.26824170159068" y2="43.90636387146183" /><line stroke="rgb(10%,10%,16%)" x1="18.869106720234345" x2="18.33753792688427" y1="43.90636387146183" y2="43.53419375857311" /><line stroke="rgb(10%,10%,16%)" x1="18.33753792688427" x2="17.823682018649595" y1="43.53419375857311" y2="43.15210690809948" /><line stroke="rgb(10%,10%,16%)" x1="17.823682018649595" x2="17.32732321762446" y1="43.15210690809948" y2="42.76048164639309" /><line stroke="rgb(10%,10%,16%)" x1="17.32732321762446" x2="16.848307534378552" y1="42.76048164639309" y2="42.35970232037565" /><line stroke="rgb(10%,10%,16%)" x1="16.848307534378552" x2="16.386532346160383" y1="42.35970232037565" y2="41.95016180248658" /><line stroke="rgb(10%,10%,16%)" x1="16.386532346160383" x2="15.94193753110822" y1="41.95016180248658" y2="41.532263427588774" /><line stroke="rgb(10%,10%,16%)" x1="15.94193753110822" x2="15.51449786671198" y1="41.532263427588774" y2="41.10642248538277" /><line stroke="rgb(10%,10%,16%)" x1="15.51449786671198" x2="15.10421646119324" y1="41.10642248538277" y2="40.67306736057804" /><line stroke="rgb(10%,10%,16%)" x1="15.10421646119324" x2="14.711119033317274" y1="40.67306736057804" y2="40.232640390174154" /><line stroke="rgb(10%,10%,16%)" x1="14.711119033317274" x2="14.33524897884693" y1="40.232640390174154" y2="39.785594593846696" /><line stroke="rgb(10%,10%,16%)" x1="14.33524897884693" x2="13.976836863526575" y1="39.785594593846696" y2="39.32941621458676" /><line stroke="rgb(10%,10%,16%)" x1="13.976836863526575" x2="13.636532633725594" y1="39.32941621458676" y2="38.86178874494767" /><line stroke="rgb(10%,10%,16%)" x1="13.636532633725594" x2="13.315058071435192" y1="38.86178874494767" y2="38.38295693504969" /><line stroke="rgb(10%,10%,16%)" x1="13.315058071435192" x2="13.01316926610588" y1="38.38295693504969" y2="37.89321087744663" /><line stroke="rgb(10%,10%,16%)" x1="13.01316926610588" x2="12.731655405901424" y1="37.89321087744663" y2="37.392890353390065" /><line stroke="rgb(10%,10%,16%)" x1="12.731655405901424" x2="12.471337438862346" y1="37.392890353390065" y2="36.882388798065335" /><line stroke="rgb(10%,10%,16%)" x1="12.471337438862346" x2="12.233066557308629" y1="36.882388798065335" y2="36.36215748782571" /><line stroke="rgb(10%,10%,16%)" x1="12.233066557308629" x2="12.017722469255144" y1="36.36215748782571" y2="35.83270996032162" /><line stroke="rgb(10%,10%,16%)" x1="12.017722469255144" x2="11.826211417572608" y1="35.83270996032162" y2="35.2946266771842" /><line stroke="rgb(10%,10%,16%)" x1="11.826211417572608" x2="11.659463904190158" y1="35.2946266771842" y2="34.748559937356546" /><line stroke="rgb(10%,10%,16%)" x1="11.659463904190158" x2="11.518432072759666" y1="34.748559937356546" y2="34.19523904726288" /><line stroke="rgb(10%,10%,16%)" x1="11.518432072759666" x2="11.404086698919556" y1="34.19523904726288" y2="33.63547575160302" /><line stroke="rgb(10%,10%,16%)" x1="11.404086698919556" x2="11.317413732560318" y1="33.63547575160302" y2="33.07016992559194" /><line stroke="rgb(10%,10%,16%)" x1="11.317413732560318" x2="11.259410331316499" y1="33.07016992559194" y2="32.500315525879316" /><line stroke="rgb(10%,10%,16%)" x1="11.259410331316499" x2="11.231080318900926" y1="32.500315525879316" y2="31.927006792864574" /><line stroke="rgb(10%,10%,16%)" x1="11.231080318900926" x2="11.233428995823918" y1="31.927006792864574" y2="31.351444691764613" /><line stroke="rgb(10%,10%,16%)" x1="11.233428995823918" x2="11.267457223569156" y1="31.351444691764613" y2="30.774943573118758" /><line stroke="rgb(10%,10%,16%)" x1="11.267457223569156" x2="11.334154696370021" y1="30.774943573118758" y2="30.198938025494474" /><line stroke="rgb(10%,10%,16%)" x1="11.334154696370021" x2="11.434492307444334" y1="30.198938025494474" y2="29.624989883453726" /><line stroke="rgb(10%,10%,16%)" x1="11.434492307444334" x2="11.56941350885035" y1="29.624989883453726" y2="29.054795342225095" /><line stroke="rgb(10%,10%,16%)" x1="11.56941350885035" x2="11.739824556180753" y1="29.054795342225095" y2="28.490192116358212" /><line stroke="rgb(10%,10%,16%)" x1="11.739824556180753" x2="11.946583520876683" y1="28.490192116358212" y2="27.93316656272751" /><line stroke="rgb(10%,10%,16%)" x1="11.946583520876683" x2="12.19048794446213" y1="27.93316656272751" y2="27.385860667344566" /><line stroke="rgb(10%,10%,16%)" x1="12.19048794446213" x2="12.472260999915271" y1="27.385860667344566" y2="26.850578770214966" /><line stroke="rgb(10%,10%,16%)" x1="12.472260999915271" x2="12.792536016115875" y1="26.850578770214966" y2="26.32979387105369" /><line stroke="rgb(10%,10%,16%)" x1="12.792536016115875" x2="13.15183921140758" y1="26.32979387105369" y2="25.826153319427135" /><line stroke="rgb(10%,10%,16%)" x1="13.15183921140758" x2="13.550570471406257" y1="25.826153319427135" y2="25.34248364318827" /><line stroke="rgb(10%,10%,16%)" x1="13.550570471406257" x2="13.98898199396735" y1="25.34248364318827" y2="24.881794204508637" /><line stroke="rgb(10%,10%,16%)" x1="13.98898199396735" x2="14.467154609566364" y1="24.881794204508637" y2="24.44727928764737" /><line stroke="rgb(10%,10%,16%)" x1="14.467154609566364" x2="14.984971566533812" y1="24.44727928764737" y2="24.042318107497266" /><line stroke="rgb(10%,10%,16%)" x1="14.984971566533812" x2="15.542089545944144" y1="24.042318107497266" y2="23.670472068263905" /><line stroke="rgb(10%,10%,16%)" x1="15.542089545944144" x2="16.13790663629346" y1="23.670472068263905" y2="23.335478375409068" /><line stroke="rgb(10%,10%,16%)" x1="16.13790663629346" x2="16.77152694829147" y1="23.335478375409068" y2="23.04123877572563" /><line stroke="rgb(10%,10%,16%)" x1="16.77152694829147" x2="17.441721478803593" y1="23.04123877572563" y2="22.79180171388967" /><line stroke="rgb(10%,10%,16%)" x1="17.441721478803593" x2="18.146884728417145" y1="22.79180171388967" y2="22.591335460489756" /><line stroke="rgb(10%,10%,16%)" x1="18.146884728417145" x2="18.884986429825098" y1="22.591335460489756" y2="22.444088643631478" /><line stroke="rgb(10%,10%,16%)" x1="18.884986429825098" x2="19.65351754140145" y1="22.444088643631478" y2="22.35433288011308" /><line stroke="rgb(10%,10%,16%)" x1="19.65351754140145" x2="20.449429405790454" y1="22.35433288011308" y2="22.326279504872804" /><line stroke="rgb(10%,10%,16%)" x1="20.449429405790454" x2="21.269064711514385" y1="22.326279504872804" y2="22.363958225141268" /><line stroke="rgb(10%,10%,16%)" x1="21.269064711514385" x2="22.108078796977967" y1="22.363958225141268" y2="22.47103919115097" /><line stroke="rgb(10%,10%,16%)" x1="22.108078796977967" x2="22.961350390603855" y1="22.47103919115097" y2="22.650570785517885" /><line stroke="rgb(10%,10%,16%)" x1="22.961350390603855" x2="23.82288333794555" y1="22.650570785517885" y2="22.904593418270412" /><line stroke="rgb(10%,10%,16%)" x1="23.82288333794555" x2="24.685708107543647" y1="22.904593418270412" y2="23.233577760044763" /><line stroke="rgb(10%,10%,16%)" x1="24.685708107543647" x2="25.540846754697455" y1="23.233577760044763" y2="23.635564310838276" /><line stroke="rgb(10%,10%,16%)" x1="25.540846754697455" x2="26.378339030535056" y1="23.635564310838276" y2="24.10550547445711" /><line stroke="rgb(10%,10%,16%)" x1="26.378339030535056" x2="27.189580633214934" y1="24.10550547445711" y2="24.634519983108444" /><line stroke="rgb(10%,10%,16%)" x1="27.189580633214934" x2="27.965699548249898" y1="24.634519983108444" y2="25.208690787755934" /><line stroke="rgb(10%,10%,16%)" x1="27.965699548249898" x2="28.698479313815376" y1="25.208690787755934" y2="25.80892594328116" /><line stroke="rgb(10%,10%,16%)" x1="28.698479313815376" x2="29.381819422712283" y1="25.80892594328116" y2="26.41255184379393" /><line stroke="rgb(10%,10%,16%)" x1="29.381819422712283" x2="30.01318442850618" y1="26.41255184379393" y2="26.996798456195222" /><line stroke="rgb(10%,10%,16%)" x1="30.01318442850618" x2="30.59417590404395" y1="26.996798456195222" y2="27.542837215023702" /><line stroke="rgb(10%,10%,16%)" x1="30.59417590404395" x2="31.12979534296739" y1="27.542837215023702" y2="28.038316221266086" /><line stroke="rgb(10%,10%,16%)" x1="31.12979534296739" x2="31.626878880307505" y1="28.038316221266086" y2="28.477481427043912" /><line stroke="rgb(10%,10%,16%)" x1="31.626878880307505" x2="31.626878880307505" y1="28.477481427043912" y2="28.477481427043912" /><line stroke="rgb(10%,10%,16%)" x1="31.626878880307505" x2="31.648669937364275" y1="28.477481427043912" y2="28.471917309504725" /><line stroke="rgb(10%,10%,16%)" x1="31.648669937364275" x2="31.716965751447432" y1="28.471917309504725" y2="28.4544779433715" /><line stroke="rgb(10%,10%,16%)" x1="31.716965751447432" x2="31.8316955471744" y1="28.4544779433715" y2="28.425183096793255" /><line stroke="rgb(10%,10%,16%)" x1="31.8316955471744" x2="31.99298399403651" y1="28.425183096793255" y2="28.384001111429427" /><line stroke="rgb(10%,10%,16%)" x1="31.99298399403651" x2="32.20074787977574" y1="28.384001111429427" y2="28.330952907072188" /><line stroke="rgb(10%,10%,16%)" x1="32.20074787977574" x2="32.45510976250456" y1="28.330952907072188" y2="28.265985729987598" /><line stroke="rgb(10%,10%,16%)" x1="32.45510976250456" x2="32.74831180721188" y1="28.265985729987598" y2="28.191122294382318" /><line stroke="rgb(10%,10%,16%)" x1="32.74831180721188" x2="33.04589780684014" y1="28.191122294382318" y2="28.115152289477187" /><line stroke="rgb(10%,10%,16%)" x1="33.04589780684014" x2="33.34350451602762" y1="28.115152289477187" y2="28.0391604591493" /><line stroke="rgb(10%,10%,16%)" x1="33.34350451602762" x2="33.64111367173266" y1="28.0391604591493" y2="27.963154340578992" /><line stroke="rgb(10%,10%,16%)" x1="33.64111367173266" x2="33.93880433845359" y1="27.963154340578992" y2="27.887136641783307" /><line stroke="rgb(10%,10%,16%)" x1="33.93880433845359" x2="34.236294935512745" y1="27.887136641783307" y2="27.811191519502877" /><line stroke="rgb(10%,10%,16%)" x1="34.236294935512745" x2="34.53391189452456" y1="27.811191519502877" y2="27.735195769563028" /><line stroke="rgb(10%,10%,16%)" x1="34.53391189452456" x2="34.831491825634984" y1="27.735195769563028" y2="27.659208292845218" /><line stroke="rgb(10%,10%,16%)" x1="34.831491825634984" x2="35.12927248805985" y1="27.659208292845218" y2="27.58316946779962" /><line stroke="rgb(10%,10%,16%)" x1="35.12927248805985" x2="35.426697350619534" y1="27.58316946779962" y2="27.507228498175973" /><line stroke="rgb(10%,10%,16%)" x1="35.426697350619534" x2="35.72431386173283" y1="27.507228498175973" y2="27.431234355721262" /><line stroke="rgb(10%,10%,16%)" x1="35.72431386173283" x2="36.02191245815939" y1="27.431234355721262" y2="27.355244171114325" /><line stroke="rgb(10%,10%,16%)" x1="36.02191245815939" x2="36.319683754408175" y1="27.355244171114325" y2="27.279220962386344" /><line stroke="rgb(10%,10%,16%)" x1="36.319683754408175" x2="36.617139554512185" y1="27.279220962386344" y2="27.203262451868657" /><line stroke="rgb(10%,10%,16%)" x1="36.617139554512185" x2="36.91476596388215" y1="27.203262451868657" y2="27.12725836901904" /><line stroke="rgb(10%,10%,16%)" x1="36.91476596388215" x2="37.21235782103574" y1="27.12725836901904" y2="27.051269503525447" /><line stroke="rgb(10%,10%,16%)" x1="37.21235782103574" x2="37.51004426980392" y1="27.051269503525447" y2="26.9752760138281" /><line stroke="rgb(10%,10%,16%)" x1="37.51004426980392" x2="37.807623909713264" y1="26.9752760138281" y2="26.899289952174072" /><line stroke="rgb(10%,10%,16%)" x1="37.807623909713264" x2="38.10518303791487" y1="26.899289952174072" y2="26.823292886667105" /><line stroke="rgb(10%,10%,16%)" x1="38.10518303791487" x2="38.40279272019776" y1="26.823292886667105" y2="26.747301703547105" /><line stroke="rgb(10%,10%,16%)" x1="38.40279272019776" x2="38.7003952059812" y1="26.747301703547105" y2="26.67132279557295" /><line stroke="rgb(10%,10%,16%)" x1="38.7003952059812" x2="38.99811526386812" y1="26.67132279557295" y2="26.595308078032687" /><line stroke="rgb(10%,10%,16%)" x1="38.99811526386812" x2="39.29557903642393" y1="26.595308078032687" y2="26.519338368053475" /><line stroke="rgb(10%,10%,16%)" x1="39.29557903642393" x2="39.59319355055963" y1="26.519338368053475" y2="26.44334645949002" /><line stroke="rgb(10%,10%,16%)" x1="39.59319355055963" x2="39.89077953038701" y1="26.44334645949002" y2="26.367361510897954" /><line stroke="rgb(10%,10%,16%)" x1="39.89077953038701" x2="40.188567233233876" y1="26.367361510897954" y2="26.291324459856334" /><line stroke="rgb(10%,10%,16%)" x1="40.188567233233876" x2="40.48598887730482" y1="26.291324459856334" y2="26.21537916359528" /><line stroke="rgb(10%,10%,16%)" x1="40.48598887730482" x2="40.7836157744503" y1="26.21537916359528" y2="26.13938329689268" /><line stroke="rgb(10%,10%,16%)" x1="40.7836157744503" x2="41.081208599233534" y1="26.13938329689268" y2="26.06339647524402" /><line stroke="rgb(10%,10%,16%)" x1="41.081208599233534" x2="41.37895943324998" y1="26.06339647524402" y2="25.987355135857502" /><line stroke="rgb(10%,10%,16%)" x1="41.37895943324998" x2="41.6764389245579" y1="25.987355135857502" y2="25.911401925796973" /><line stroke="rgb(10%,10%,16%)" x1="41.6764389245579" x2="41.974062428857735" y1="25.911401925796973" y2="25.835416489647677" /><line stroke="rgb(10%,10%,16%)" x1="41.974062428857735" x2="42.27165617768105" y1="25.835416489647677" y2="25.75942898301792" /><line stroke="rgb(10%,10%,16%)" x1="42.27165617768105" x2="42.56931310347218" y1="25.75942898301792" y2="25.683406763579526" /><line stroke="rgb(10%,10%,16%)" x1="42.56931310347218" x2="42.86692524799322" y1="25.683406763579526" y2="25.607413405485687" /><line stroke="rgb(10%,10%,16%)" x1="42.86692524799322" x2="43.16447248457312" y1="25.607413405485687" y2="25.531455713819557" /><line stroke="rgb(10%,10%,16%)" x1="43.16447248457312" x2="43.462083490670196" y1="25.531455713819557" y2="25.455461533683007" /><line stroke="rgb(10%,10%,16%)" x1="43.462083490670196" x2="43.75967211926414" y1="25.455461533683007" y2="25.37946591378805" /><line stroke="rgb(10%,10%,16%)" x1="43.75967211926414" x2="44.057412687507714" y1="25.37946591378805" y2="25.303434346948546" /><line stroke="rgb(10%,10%,16%)" x1="44.057412687507714" x2="44.35486606244871" y1="25.303434346948546" y2="25.227494215309093" /><line stroke="rgb(10%,10%,16%)" x1="44.35486606244871" x2="44.65247475574152" y1="25.227494215309093" y2="25.151501020221435" /><line stroke="rgb(10%,10%,16%)" x1="44.65247475574152" x2="44.9500689650162" y1="25.151501020221435" y2="25.075512454393234" /><line stroke="rgb(10%,10%,16%)" x1="44.9500689650162" x2="45.24785800429019" y1="25.075512454393234" y2="24.99947657505566" /><line stroke="rgb(10%,10%,16%)" x1="45.24785800429019" x2="45.54528271061639" y1="24.99947657505566" y2="24.92353004894728" /><line stroke="rgb(10%,10%,16%)" x1="45.54528271061639" x2="45.84291579966329" y1="24.92353004894728" y2="24.8475297842842" /><line stroke="rgb(10%,10%,16%)" x1="45.84291579966329" x2="46.140503825939575" y1="24.8475297842842" y2="24.77154186526218" /><line stroke="rgb(10%,10%,16%)" x1="46.140503825939575" x2="46.438243725262474" y1="24.77154186526218" y2="24.695531743824464" /><line stroke="rgb(10%,10%,16%)" x1="46.438243725262474" x2="46.73574553469962" y1="24.695531743824464" y2="24.619561811317222" /><line stroke="rgb(10%,10%,16%)" x1="46.73574553469962" x2="47.033352264483085" y1="24.619561811317222" y2="24.543557330879363" /><line stroke="rgb(10%,10%,16%)" x1="47.033352264483085" x2="47.33094819931384" y1="24.543557330879363" y2="24.467568626479597" /><line stroke="rgb(10%,10%,16%)" x1="47.33094819931384" x2="47.62859400763069" y1="24.467568626479597" y2="24.39158391530702" /><line stroke="rgb(10%,10%,16%)" x1="47.62859400763069" x2="47.92308260828985" y1="24.39158391530702" y2="24.31639108968982" /><line stroke="rgb(10%,10%,16%)" x1="47.92308260828985" x2="48.180239730041166" y1="24.31639108968982" y2="24.250709470364942" /><line stroke="rgb(10%,10%,16%)" x1="48.180239730041166" x2="48.39098317824106" y1="24.250709470364942" y2="24.196900985890217" /><line stroke="rgb(10%,10%,16%)" x1="48.39098317824106" x2="48.555195761189054" y1="24.196900985890217" y2="24.15497260062322" /><line stroke="rgb(10%,10%,16%)" x1="48.555195761189054" x2="48.67296802630878" y1="24.15497260062322" y2="24.124900950440257" /><line stroke="rgb(10%,10%,16%)" x1="48.67296802630878" x2="48.74417720306777" y1="24.124900950440257" y2="24.10671754652617" /><line stroke="rgb(10%,10%,16%)" x1="48.74417720306777" x2="48.76891968109908" y1="24.10671754652617" y2="24.100399795320403" /><line stroke="rgb(10%,10%,16%)" x1="48.76891968109908" x2="48.098271371392535" y1="24.100399795320403" y2="21.079918388412384" /><line stroke="rgb(10%,10%,16%)" x1="48.098271371392535" x2="47.491691903440355" y1="21.079918388412384" y2="19.647898801274422" /><line stroke="rgb(10%,10%,16%)" x1="47.491691903440355" x2="46.69506706911636" y1="19.647898801274422" y2="18.27333010348223" /><line stroke="rgb(10%,10%,16%)" x1="46.69506706911636" x2="45.70720921499044" y1="18.27333010348223" y2="16.975989801189765" /><line stroke="rgb(10%,10%,16%)" x1="45.70720921499044" x2="44.52988209933275" y1="16.975989801189765" y2="15.778208057526285" /><line stroke="rgb(10%,10%,16%)" x1="44.52988209933275" x2="43.1728507748828" y1="15.778208057526285" y2="14.706040351879444" /><line stroke="rgb(10%,10%,16%)" x1="43.1728507748828" x2="41.66350812950043" y1="14.706040351879444" y2="13.788833460652661" /><line stroke="rgb(10%,10%,16%)" x1="41.66350812950043" x2="40.05721842495579" y1="13.788833460652661" y2="13.053260811757955" /><line stroke="rgb(10%,10%,16%)" x1="40.05721842495579" x2="38.43321216017508" y1="13.053260811757955" y2="12.510304262579488" /><line stroke="rgb(10%,10%,16%)" x1="38.43321216017508" x2="36.86477530699829" y1="12.510304262579488" y2="12.145693307714758" /><line stroke="rgb(10%,10%,16%)" x1="36.86477530699829" x2="35.39566509018015" y1="12.145693307714758" y2="11.927576198333945" /><line stroke="rgb(10%,10%,16%)" x1="35.39566509018015" x2="34.04006179185918" y1="11.927576198333945" y2="11.82098117084815" /><line stroke="rgb(10%,10%,16%)" x1="34.04006179185918" x2="32.792322412223676" y1="11.82098117084815" y2="11.796749072526232" /><line stroke="rgb(10%,10%,16%)" x1="32.792322412223676" x2="31.639493613134764" y1="11.796749072526232" y2="11.833678695916571" /><line stroke="rgb(10%,10%,16%)" x1="31.639493613134764" x2="30.567752588398548" y1="11.833678695916571" y2="11.917153062477738" /><line stroke="rgb(10%,10%,16%)" x1="30.567752588398548" x2="29.56479444205341" y1="11.917153062477738" y2="12.037218232128744" /><line stroke="rgb(10%,10%,16%)" x1="29.56479444205341" x2="28.620384213967892" y1="12.037218232128744" y2="12.187050340569442" /><line stroke="rgb(10%,10%,16%)" x1="28.620384213967892" x2="27.726237411446203" y1="12.187050340569442" y2="12.361899723742724" /><line stroke="rgb(10%,10%,16%)" x1="27.726237411446203" x2="26.87571398463457" y1="12.361899723742724" y2="12.558397208118897" /><line stroke="rgb(10%,10%,16%)" x1="26.87571398463457" x2="26.06350221427673" y1="12.558397208118897" y2="12.774102768106879" /><line stroke="rgb(10%,10%,16%)" x1="26.06350221427673" x2="25.28534625465018" y1="12.774102768106879" y2="13.007210062182075" /><line stroke="rgb(10%,10%,16%)" x1="25.28534625465018" x2="24.537826287208937" y1="13.007210062182075" y2="13.256350485457723" /><line stroke="rgb(10%,10%,16%)" x1="24.537826287208937" x2="23.818185767518187" y1="13.256350485457723" y2="13.520461172502944" /><line stroke="rgb(10%,10%,16%)" x1="23.818185767518187" x2="23.124196930967006" y1="13.520461172502944" y2="13.798694618484873" /><line stroke="rgb(10%,10%,16%)" x1="23.124196930967006" x2="22.454056167636455" y1="13.798694618484873" y2="14.090355799744138" /><line stroke="rgb(10%,10%,16%)" x1="22.454056167636455" x2="21.806302337600354" y1="14.090355799744138" y2="14.394857756172357" /><line stroke="rgb(10%,10%,16%)" x1="21.806302337600354" x2="21.179752614396303" y1="14.394857756172357" y2="14.711689764784552" /><line stroke="rgb(10%,10%,16%)" x1="21.179752614396303" x2="20.573451729825287" y1="14.711689764784552" y2="15.040394232582894" /><line stroke="rgb(10%,10%,16%)" x1="20.573451729825287" x2="19.986631504110616" y1="15.040394232582894" y2="15.380549715144696" /><line stroke="rgb(10%,10%,16%)" x1="19.986631504110616" x2="19.41867831318586" y1="15.380549715144696" y2="15.731758298409321" /><line stroke="rgb(10%,10%,16%)" x1="19.41867831318586" x2="18.869106720234345" y1="15.731758298409321" y2="16.09363612853818" /><line stroke="rgb(10%,10%,16%)" x1="18.869106720234345" x2="18.33753792688427" y1="16.09363612853818" y2="16.465806241426893" /><line stroke="rgb(10%,10%,16%)" x1="18.33753792688427" x2="17.823682018649595" y1="16.465806241426893" y2="16.847893091900517" /><line stroke="rgb(10%,10%,16%)" x1="17.823682018649595" x2="17.32732321762446" y1="16.847893091900517" y2="17.23951835360691" /><line stroke="rgb(10%,10%,16%)" x1="17.32732321762446" x2="16.848307534378552" y1="17.23951835360691" y2="17.640297679624346" /><line stroke="rgb(10%,10%,16%)" x1="16.848307534378552" x2="16.386532346160383" y1="17.640297679624346" y2="18.04983819751342" /><line stroke="rgb(10%,10%,16%)" x1="16.386532346160383" x2="15.94193753110822" y1="18.04983819751342" y2="18.467736572411226" /><line stroke="rgb(10%,10%,16%)" x1="15.94193753110822" x2="15.51449786671198" y1="18.467736572411226" y2="18.893577514617228" /><line stroke="rgb(10%,10%,16%)" x1="15.51449786671198" x2="15.10421646119324" y1="18.893577514617228" y2="19.326932639421965" /><line stroke="rgb(10%,10%,16%)" x1="15.10421646119324" x2="14.711119033317274" y1="19.326932639421965" y2="19.767359609825846" /><line stroke="rgb(10%,10%,16%)" x1="14.711119033317274" x2="14.33524897884693" y1="19.767359609825846" y2="20.214405406153308" /><line stroke="rgb(10%,10%,16%)" x1="14.33524897884693" x2="13.976836863526575" y1="20.214405406153308" y2="20.67058378541325" /><line stroke="rgb(10%,10%,16%)" x1="13.976836863526575" x2="13.636532633725594" y1="20.67058378541325" y2="21.138211255052337" /><line stroke="rgb(10%,10%,16%)" x1="13.636532633725594" x2="13.315058071435192" y1="21.138211255052337" y2="21.617043064950305" /><line stroke="rgb(10%,10%,16%)" x1="13.315058071435192" x2="13.01316926610588" y1="21.617043064950305" y2="22.106789122553376" /><line stroke="rgb(10%,10%,16%)" x1="13.01316926610588" x2="12.731655405901424" y1="22.106789122553376" y2="22.607109646609935" /><line stroke="rgb(10%,10%,16%)" x1="12.731655405901424" x2="12.471337438862342" y1="22.607109646609935" y2="23.117611201934665" /><line stroke="rgb(10%,10%,16%)" x1="12.471337438862342" x2="12.233066557308629" y1="23.117611201934665" y2="23.637842512174288" /><line stroke="rgb(10%,10%,16%)" x1="12.233066557308629" x2="12.017722469255144" y1="23.637842512174288" y2="24.167290039678385" /><line stroke="rgb(10%,10%,16%)" x1="12.017722469255144" x2="11.826211417572605" y1="24.167290039678385" y2="24.7053733228158" /><line stroke="rgb(10%,10%,16%)" x1="11.826211417572605" x2="11.659463904190158" y1="24.7053733228158" y2="25.251440062643454" /><line stroke="rgb(10%,10%,16%)" x1="11.659463904190158" x2="11.51843207275967" y1="25.251440062643454" y2="25.804760952737126" /><line stroke="rgb(10%,10%,16%)" x1="11.51843207275967" x2="11.404086698919556" y1="25.804760952737126" y2="26.364524248396982" /><line stroke="rgb(10%,10%,16%)" x1="11.404086698919556" x2="11.317413732560322" y1="26.364524248396982" y2="26.929830074408066" /><line stroke="rgb(10%,10%,16%)" x1="11.317413732560322" x2="11.259410331316502" y1="26.929830074408066" y2="27.499684474120695" /><line stroke="rgb(10%,10%,16%)" x1="11.259410331316502" x2="11.231080318900933" y1="27.499684474120695" y2="28.072993207135433" /><line stroke="rgb(10%,10%,16%)" x1="11.231080318900933" x2="11.233428995823918" y1="28.072993207135433" y2="28.648555308235387" /><line stroke="rgb(10%,10%,16%)" x1="11.233428995823918" x2="11.267457223569156" y1="28.648555308235387" y2="29.225056426881245" /><line stroke="rgb(10%,10%,16%)" x1="11.267457223569156" x2="11.334154696370021" y1="29.225056426881245" y2="29.80106197450553" /><line stroke="rgb(10%,10%,16%)" x1="11.334154696370021" x2="11.43449230744434" y1="29.80106197450553" y2="30.375010116546278" /><line stroke="rgb(10%,10%,16%)" x1="11.43449230744434" x2="11.56941350885035" y1="30.375010116546278" y2="30.94520465777491" /><line stroke="rgb(10%,10%,16%)" x1="11.56941350885035" x2="11.739824556180753" y1="30.94520465777491" y2="31.50980788364179" /><line stroke="rgb(10%,10%,16%)" x1="11.739824556180753" x2="11.946583520876683" y1="31.50980788364179" y2="32.06683343727249" /><line stroke="rgb(10%,10%,16%)" x1="11.946583520876683" x2="12.19048794446213" y1="32.06683343727249" y2="32.61413933265544" /><line stroke="rgb(10%,10%,16%)" x1="12.19048794446213" x2="12.472260999915271" y1="32.61413933265544" y2="33.149421229785034" /><line stroke="rgb(10%,10%,16%)" x1="12.472260999915271" x2="12.792536016115875" y1="33.149421229785034" y2="33.67020612894632" /><line stroke="rgb(10%,10%,16%)" x1="12.792536016115875" x2="13.15183921140758" y1="33.67020612894632" y2="34.173846680572865" /><line stroke="rgb(10%,10%,16%)" x1="13.15183921140758" x2="13.550570471406257" y1="34.173846680572865" y2="34.65751635681173" /><line stroke="rgb(10%,10%,16%)" x1="13.550570471406257" x2="13.98898199396735" y1="34.65751635681173" y2="35.11820579549136" /><line stroke="rgb(10%,10%,16%)" x1="13.98898199396735" x2="14.467154609566364" y1="35.11820579549136" y2="35.55272071235264" /><line stroke="rgb(10%,10%,16%)" x1="14.467154609566364" x2="14.984971566533812" y1="35.55272071235264" y2="35.957681892502734" /><line stroke="rgb(10%,10%,16%)" x1="14.984971566533812" x2="15.542089545944144" y1="35.957681892502734" y2="36.329527931736095" /><line stroke="rgb(10%,10%,16%)" x1="15.542089545944144" x2="16.13790663629346" y1="36.329527931736095" y2="36.66452162459093" /><line stroke="rgb(10%,10%,16%)" x1="16.13790663629346" x2="16.77152694829147" y1="36.66452162459093" y2="36.95876122427437" /><line stroke="rgb(10%,10%,16%)" x1="16.77152694829147" x2="17.441721478803593" y1="36.95876122427437" y2="37.20819828611033" /><line stroke="rgb(10%,10%,16%)" x1="17.441721478803593" x2="18.146884728417145" y1="37.20819828611033" y2="37.40866453951025" /><line stroke="rgb(10%,10%,16%)" x1="18.146884728417145" x2="18.884986429825098" y1="37.40866453951025" y2="37.555911356368526" /><line stroke="rgb(10%,10%,16%)" x1="18.884986429825098" x2="19.653517541401435" y1="37.555911356368526" y2="37.64566711988692" /><line stroke="rgb(10%,10%,16%)" x1="19.653517541401435" x2="20.44942940579044" y1="37.64566711988692" y2="37.6737204951272" /><line stroke="rgb(10%,10%,16%)" x1="20.44942940579044" x2="21.269064711514375" y1="37.6737204951272" y2="37.63604177485874" /><line stroke="rgb(10%,10%,16%)" x1="21.269064711514375" x2="22.108078796977967" y1="37.63604177485874" y2="37.52896080884903" /><line stroke="rgb(10%,10%,16%)" x1="22.108078796977967" x2="22.961350390603844" y1="37.52896080884903" y2="37.34942921448213" /><line stroke="rgb(10%,10%,16%)" x1="22.961350390603844" x2="23.82288333794555" y1="37.34942921448213" y2="37.09540658172959" /><line stroke="rgb(10%,10%,16%)" x1="23.82288333794555" x2="24.685708107543658" y1="37.09540658172959" y2="36.76642223995523" /><line stroke="rgb(10%,10%,16%)" x1="24.685708107543658" x2="25.540846754697466" y1="36.76642223995523" y2="36.364435689161716" /><line stroke="rgb(10%,10%,16%)" x1="25.540846754697466" x2="26.37833903053505" y1="36.364435689161716" y2="35.894494525542896" /><line stroke="rgb(10%,10%,16%)" x1="26.37833903053505" x2="27.189580633214934" y1="35.894494525542896" y2="35.36548001689156" /><line stroke="rgb(10%,10%,16%)" x1="27.189580633214934" x2="27.965699548249898" y1="35.36548001689156" y2="34.791309212244066" /><line stroke="rgb(10%,10%,16%)" x1="27.965699548249898" x2="28.698479313815376" y1="34.791309212244066" y2="34.19107405671884" /><line stroke="rgb(10%,10%,16%)" x1="28.698479313815376" x2="29.38181942271229" y1="34.19107405671884" y2="33.58744815620606" /><line stroke="rgb(10%,10%,16%)" x1="29.38181942271229" x2="30.01318442850618" y1="33.58744815620606" y2="33.00320154380478" /><line stroke="rgb(10%,10%,16%)" x1="30.01318442850618" x2="30.59417590404395" y1="33.00320154380478" y2="32.4571627849763" /><line stroke="rgb(10%,10%,16%)" x1="30.59417590404395" x2="31.129795342967387" y1="32.4571627849763" y2="31.961683778733928" /><line stroke="rgb(10%,10%,16%)" x1="31.129795342967387" x2="31.626878880307505" y1="31.961683778733928" y2="31.52251857295609" /><line stroke="rgb(10%,10%,16%)" x1="31.626878880307505" x2="31.626878880307505" y1="31.52251857295609" y2="31.52251857295609" /><line stroke="rgb(10%,10%,16%)" x1="31.626878880307505" x2="31.648669937364275" y1="31.52251857295609" y2="31.52808269049528" /><line stroke="rgb(10%,10%,16%)" x1="31.648669937364275" x2="31.716965751447432" y1="31.52808269049528" y2="31.545522056628503" /><line stroke="rgb(10%,10%,16%)" x1="31.716965751447432" x2="31.8316955471744" y1="31.545522056628503" y2="31.57481690320675" /><line stroke="rgb(10%,10%,16%)" x1="31.8316955471744" x2="31.99298399403651" y1="31.57481690320675" y2="31.615998888570576" /><line stroke="rgb(10%,10%,16%)" x1="31.99298399403651" x2="32.20074787977574" y1="31.615998888570576" y2="31.669047092927812" /><line stroke="rgb(10%,10%,16%)" x1="32.20074787977574" x2="32.45510976250456" y1="31.669047092927812" y2="31.734014270012402" /><line stroke="rgb(10%,10%,16%)" x1="32.45510976250456" x2="32.74831180721188" y1="31.734014270012402" y2="31.808877705617686" /><line stroke="rgb(10%,10%,16%)" x1="32.74831180721188" x2="33.04589780684014" y1="31.808877705617686" y2="31.884847710522813" /><line stroke="rgb(10%,10%,16%)" x1="33.04589780684014" x2="33.34350451602762" y1="31.884847710522813" y2="31.9608395408507" /><line stroke="rgb(10%,10%,16%)" x1="33.34350451602762" x2="33.64111367173266" y1="31.9608395408507" y2="32.03684565942101" /><line stroke="rgb(10%,10%,16%)" x1="33.64111367173266" x2="33.93880433845359" y1="32.03684565942101" y2="32.11286335821669" /><line stroke="rgb(10%,10%,16%)" x1="33.93880433845359" x2="34.236294935512745" y1="32.11286335821669" y2="32.18880848049712" /><line stroke="rgb(10%,10%,16%)" x1="34.236294935512745" x2="34.53391189452456" y1="32.18880848049712" y2="32.26480423043698" /><line stroke="rgb(10%,10%,16%)" x1="34.53391189452456" x2="34.831491825634984" y1="32.26480423043698" y2="32.340791707154786" /><line stroke="rgb(10%,10%,16%)" x1="34.831491825634984" x2="35.12927248805985" y1="32.340791707154786" y2="32.41683053220038" /><line stroke="rgb(10%,10%,16%)" x1="35.12927248805985" x2="35.426697350619534" y1="32.41683053220038" y2="32.49277150182403" /><line stroke="rgb(10%,10%,16%)" x1="35.426697350619534" x2="35.72431386173283" y1="32.49277150182403" y2="32.56876564427874" /><line stroke="rgb(10%,10%,16%)" x1="35.72431386173283" x2="36.02191245815939" y1="32.56876564427874" y2="32.64475582888568" /><line stroke="rgb(10%,10%,16%)" x1="36.02191245815939" x2="36.319683754408175" y1="32.64475582888568" y2="32.72077903761366" /><line stroke="rgb(10%,10%,16%)" x1="36.319683754408175" x2="36.617139554512185" y1="32.72077903761366" y2="32.79673754813135" /><line stroke="rgb(10%,10%,16%)" x1="36.617139554512185" x2="36.91476596388215" y1="32.79673754813135" y2="32.87274163098096" /><line stroke="rgb(10%,10%,16%)" x1="36.91476596388215" x2="37.21235782103574" y1="32.87274163098096" y2="32.94873049647455" /><line stroke="rgb(10%,10%,16%)" x1="37.21235782103574" x2="37.51004426980392" y1="32.94873049647455" y2="33.0247239861719" /><line stroke="rgb(10%,10%,16%)" x1="37.51004426980392" x2="37.807623909713264" y1="33.0247239861719" y2="33.100710047825935" /><line stroke="rgb(10%,10%,16%)" x1="37.807623909713264" x2="38.10518303791487" y1="33.100710047825935" y2="33.176707113332895" /><line stroke="rgb(10%,10%,16%)" x1="38.10518303791487" x2="38.40279272019776" y1="33.176707113332895" y2="33.2526982964529" /><line stroke="rgb(10%,10%,16%)" x1="38.40279272019776" x2="38.7003952059812" y1="33.2526982964529" y2="33.32867720442705" /><line stroke="rgb(10%,10%,16%)" x1="38.7003952059812" x2="38.99811526386812" y1="33.32867720442705" y2="33.40469192196731" /><line stroke="rgb(10%,10%,16%)" x1="38.99811526386812" x2="39.29557903642393" y1="33.40469192196731" y2="33.480661631946525" /><line stroke="rgb(10%,10%,16%)" x1="39.29557903642393" x2="39.59319355055963" y1="33.480661631946525" y2="33.556653540509984" /><line stroke="rgb(10%,10%,16%)" x1="39.59319355055963" x2="39.89077953038701" y1="33.556653540509984" y2="33.63263848910205" /><line stroke="rgb(10%,10%,16%)" x1="39.89077953038701" x2="40.188567233233876" y1="33.63263848910205" y2="33.708675540143666" /><line stroke="rgb(10%,10%,16%)" x1="40.188567233233876" x2="40.48598887730482" y1="33.708675540143666" y2="33.78462083640472" /><line stroke="rgb(10%,10%,16%)" x1="40.48598887730482" x2="40.7836157744503" y1="33.78462083640472" y2="33.860616703107326" /><line stroke="rgb(10%,10%,16%)" x1="40.7836157744503" x2="41.081208599233534" y1="33.860616703107326" y2="33.93660352475599" /><line stroke="rgb(10%,10%,16%)" x1="41.081208599233534" x2="41.37895943324998" y1="33.93660352475599" y2="34.0126448641425" /><line stroke="rgb(10%,10%,16%)" x1="41.37895943324998" x2="41.6764389245579" y1="34.0126448641425" y2="34.08859807420303" /><line stroke="rgb(10%,10%,16%)" x1="41.6764389245579" x2="41.974062428857735" y1="34.08859807420303" y2="34.16458351035233" /><line stroke="rgb(10%,10%,16%)" x1="41.974062428857735" x2="42.27165617768105" y1="34.16458351035233" y2="34.24057101698209" /><line stroke="rgb(10%,10%,16%)" x1="42.27165617768105" x2="42.56931310347218" y1="34.24057101698209" y2="34.31659323642047" /><line stroke="rgb(10%,10%,16%)" x1="42.56931310347218" x2="42.86692524799322" y1="34.31659323642047" y2="34.39258659451432" /><line stroke="rgb(10%,10%,16%)" x1="42.86692524799322" x2="43.16447248457312" y1="34.39258659451432" y2="34.468544286180446" /><line stroke="rgb(10%,10%,16%)" x1="43.16447248457312" x2="43.462083490670196" y1="34.468544286180446" y2="34.544538466317" /><line stroke="rgb(10%,10%,16%)" x1="43.462083490670196" x2="43.75967211926414" y1="34.544538466317" y2="34.620534086211954" /><line stroke="rgb(10%,10%,16%)" x1="43.75967211926414" x2="44.057412687507714" y1="34.620534086211954" y2="34.69656565305146" /><line stroke="rgb(10%,10%,16%)" x1="44.057412687507714" x2="44.35486606244871" y1="34.69656565305146" y2="34.77250578469091" /><line stroke="rgb(10%,10%,16%)" x1="44.35486606244871" x2="44.65247475574152" y1="34.77250578469091" y2="34.84849897977857" /><line stroke="rgb(10%,10%,16%)" x1="44.65247475574152" x2="44.9500689650162" y1="34.84849897977857" y2="34.924487545606766" /><line stroke="rgb(10%,10%,16%)" x1="44.9500689650162" x2="45.24785800429019" y1="34.924487545606766" y2="35.00052342494434" /><line stroke="rgb(10%,10%,16%)" x1="45.24785800429019" x2="45.54528271061639" y1="35.00052342494434" y2="35.07646995105272" /><line stroke="rgb(10%,10%,16%)" x1="45.54528271061639" x2="45.84291579966329" y1="35.07646995105272" y2="35.15247021571581" /><line stroke="rgb(10%,10%,16%)" x1="45.84291579966329" x2="46.140503825939575" y1="35.15247021571581" y2="35.22845813473782" /><line stroke="rgb(10%,10%,16%)" x1="46.140503825939575" x2="46.438243725262474" y1="35.22845813473782" y2="35.30446825617554" /><line stroke="rgb(10%,10%,16%)" x1="46.438243725262474" x2="46.73574553469962" y1="35.30446825617554" y2="35.38043818868278" /><line stroke="rgb(10%,10%,16%)" x1="46.73574553469962" x2="47.033352264483085" y1="35.38043818868278" y2="35.45644266912064" /><line stroke="rgb(10%,10%,16%)" x1="47.033352264483085" x2="47.33094819931384" y1="35.45644266912064" y2="35.5324313735204" /><line stroke="rgb(10%,10%,16%)" x1="47.33094819931384" x2="47.62859400763069" y1="35.5324313735204" y2="35.60841608469298" /><line stroke="rgb(10%,10%,16%)" x1="47.62859400763069" x2="47.92308260828985" y1="35.60841608469298" y2="35.683608910310184" /><line stroke="rgb(10%,10%,16%)" x1="47.92308260828985" x2="48.180239730041166" y1="35.683608910310184" y2="35.74929052963506" /><line stroke="rgb(10%,10%,16%)" x1="48.180239730041166" x2="48.39098317824106" y1="35.74929052963506" y2="35.80309901410979" /><line stroke="rgb(10%,10%,16%)" x1="48.39098317824106" x2="48.555195761189054" y1="35.80309901410979" y2="35.84502739937678" /><line stroke="rgb(10%,10%,16%)" x1="48.555195761189054" x2="48.67296802630878" y1="35.84502739937678" y2="35.87509904955974" /><line stroke="rgb(10%,10%,16%)" x1="48.67296802630878" x2="48.74417720306777" y1="35.87509904955974" y2="35.89328245347383" /><line stroke="rgb(10%,10%,16%)" x1="48.74417720306777" x2="48.76891968109908" y1="35.89328245347383" y2="35.8996002046796" /></svg>